<?xml version="1.0" encoding="UTF-8" standalone="no"?>
<!-- Created with Inkscape (http://www.inkscape.org/) -->

<svg
   xmlns:dc="http://purl.org/dc/elements/1.1/"
   xmlns:cc="http://creativecommons.org/ns#"
   xmlns:rdf="http://www.w3.org/1999/02/22-rdf-syntax-ns#"
   xmlns:svg="http://www.w3.org/2000/svg"
   xmlns="http://www.w3.org/2000/svg"
   xmlns:sodipodi="http://sodipodi.sourceforge.net/DTD/sodipodi-0.dtd"
   xmlns:inkscape="http://www.inkscape.org/namespaces/inkscape"
   width="53.80365mm"
   height="53.80365mm"
   viewBox="0 0 190.64285 190.64285"
   id="svg3337"
   version="1.1"
   inkscape:version="0.91 r13725"
   sodipodi:docname="icon.svg"
   inkscape:export-xdpi="30.213539"
   inkscape:export-ydpi="30.213539">
  <defs
     id="defs3339" />
  <sodipodi:namedview
     id="base"
     pagecolor="#ffffff"
     bordercolor="#666666"
     borderopacity="1.0"
     inkscape:pageopacity="0.0"
     inkscape:pageshadow="2"
     inkscape:zoom="0.98994949"
     inkscape:cx="312.0751"
     inkscape:cy="-140.97881"
     inkscape:document-units="px"
     inkscape:current-layer="layer1"
     showgrid="false"
     inkscape:window-width="1920"
     inkscape:window-height="1137"
     inkscape:window-x="-8"
     inkscape:window-y="-8"
     inkscape:window-maximized="1"
     fit-margin-top="0"
     fit-margin-left="0"
     fit-margin-right="0"
     fit-margin-bottom="0" />
  <metadata
     id="metadata3342">
    <rdf:RDF>
      <cc:Work
         rdf:about="">
        <dc:format>image/svg+xml</dc:format>
        <dc:type
           rdf:resource="http://purl.org/dc/dcmitype/StillImage" />
        <dc:title></dc:title>
      </cc:Work>
    </rdf:RDF>
  </metadata>
  <g
     inkscape:label="Layer 1"
     inkscape:groupmode="layer"
     id="layer1"
     transform="translate(-294.85715,-367.57648)">
    <path
       id="path3372"
       style="fill:#000000;fill-opacity:1;stroke:none"
       d="m 318.01424,536.11969 c -1.90782,-4.36927 -2.17774,-6.22693 -1.62048,-11.15248 1.04772,-9.26059 6.26762,-26.0347 21.03788,-67.605 7.52365,-21.175 14.82179,-41.875 16.21808,-46 3.5412,-10.46154 4.42466,-10.88717 4.15126,-2 -0.25912,8.423 0.93877,11.66352 4.65646,12.5966 3.79152,0.95161 6.77673,-0.19749 12.09787,-4.65684 4.64802,-3.89523 20.13837,-12.50799 20.98085,-11.66551 0.22035,0.22035 -2.47824,6.66128 -5.99687,14.31319 -3.51863,7.65191 -13.02278,28.31256 -21.12035,45.91256 -26.70252,58.03773 -32.4493,68.11948 -41.50845,72.81954 -2.84157,1.47425 -5.49063,2.68046 -5.88681,2.68046 -0.39618,0 -1.75043,-2.35913 -3.00944,-5.24252 z m -1.36126,-9.75748 c 0.17713,-8.88152 4.39696,-22.89437 20.77866,-69 7.52365,-21.175 14.82179,-41.875 16.21808,-46 3.5412,-10.46154 4.42466,-10.88717 4.15126,-2 -0.25912,8.423 0.93877,11.66352 4.65646,12.5966 3.8121,0.95678 6.73712,-0.18783 12.58917,-4.92634 2.96008,-2.39683 7.36607,-5.44066 9.79109,-6.76407 6.16936,-3.36681 7.12531,-5.22261 4.04043,-7.84375 -1.68764,-1.43393 -3.69371,-2.0366 -6.44955,-1.93758 -2.2,0.079 -5.30724,0.0833 -6.90499,0.009 -2.87729,-0.13301 -2.88704,-0.15412 -1.02305,-2.2138 1.55782,-1.72138 2.607,-1.97078 6.09206,-1.44817 3.56093,0.534 4.37505,0.32319 5.27966,-1.3671 0.84299,-1.57514 0.72068,-2.19368 -0.57747,-2.92015 -2.72374,-1.52426 -0.5375,-3.18504 4.19281,-3.18504 5.81136,0 5.89508,-2.12686 0.19098,-4.85212 -7.32933,-3.50176 -9.20875,-3.62287 -11.11329,-0.71619 -1.52458,2.32682 -1.53177,2.56831 -0.0764,2.56831 3.36873,0 0.59635,2.48504 -3.08779,2.76775 -4.80636,0.36884 -5.23405,0.78314 -3.56588,3.45431 1.1517,1.84417 1.09033,2.30701 -0.45581,3.43758 -2.22535,1.62721 -3.83349,0.47071 -6.43426,-4.62721 -2.24673,-4.40397 -1.50655,-6.05386 4.00463,-8.92645 9.88389,-5.15177 25.20461,-1.08814 29.7621,7.89402 1.47623,2.90945 2.06986,5.38364 1.67949,7 -0.33208,1.375 -3.68338,9.025 -7.44733,17 -3.76396,7.975 -13.57368,29.125 -21.7994,47 -28.43706,61.79554 -32.36499,68.93339 -41.92934,76.194 -13.07458,10.42114 -12.73563,1.41365 -12.56232,-11.1936 z m 80.7756,-130 c 0.33992,-0.55 0.14148,-1 -0.44098,-1 -0.58246,0 -1.05902,0.45 -1.05902,1 0,0.55 0.19844,1 0.44098,1 0.24254,0 0.7191,-0.45 1.05902,-1 z m -34.75,20.9199 c -2.43195,-1.41648 -2.19207,-5.49686 0.43118,-7.33425 2.10965,-1.47766 2.12207,-1.59308 0.37872,-3.51946 -1.97959,-2.18742 -1.48322,-5.06619 0.87353,-5.06619 0.82291,0 1.96337,0.87291 2.53436,1.93981 0.68247,1.2752 2.31909,2.04609 4.77687,2.25 2.7205,0.22571 3.83585,0.82224 4.09542,2.19036 0.52361,2.75988 -1.78472,3.6698 -5.4377,2.14349 l -3.20297,-1.33829 1.62461,2.83071 c 1.52303,2.65373 1.5071,2.96055 -0.2547,4.90732 -2.08671,2.3058 -3.23407,2.50227 -5.81932,0.9965 z m -43.42265,125.30357 c -1.99746,-1.27054 -4.29753,-9.44912 -4.3128,-15.3354 -0.0134,-5.16948 5.2506,-26.2571 9.33301,-37.38807 3.25241,-8.86792 27.00664,-75.587 29.81781,-83.75 2.04373,-5.93454 3.51147,-8.75 4.56149,-8.75 1.3288,0 1.45159,1.19035 0.86658,8.4003 -0.82025,10.10914 -0.12937,13.44544 3.03327,14.64788 3.15085,1.19794 5.68388,0.13082 13.54901,-5.70799 3.58597,-2.6621 7.97576,-5.62819 9.75508,-6.5913 1.77932,-0.9631 3.05813,-2.2821 2.8418,-2.9311 -0.60251,-1.80751 -6.69993,-3.65703 -12.33551,-3.74171 -5.40936,-0.0813 -6.90271,-1.16813 -12.36524,-8.99927 -2.18674,-3.13492 -2.26637,-3.64018 -0.94565,-6 3.76908,-6.73449 18.77174,-8.89252 28.34211,-4.07681 2.7698,1.39373 6.01741,4.04877 7.33912,6 3.58476,5.29215 2.67846,10.05818 -5.03919,26.5 -3.61431,7.7 -13.18449,28.4 -21.26707,46 -29.72716,64.73159 -33.94745,72.27682 -44.00117,78.66724 -6.24503,3.96951 -7.22404,4.2957 -9.17265,3.05623 z m 65.15988,-147.2028 c 0.33289,-0.53864 0.12873,-1.86974 -0.4537,-2.95802 -1.38678,-2.59122 1.14243,-4.02409 5.84387,-3.31072 4.85692,0.73696 3.73014,-1.65237 -2.17333,-4.60852 -5.51538,-2.76182 -8.03974,-2.32899 -7.14761,1.22554 0.69901,2.78508 -0.71385,4.02041 -4.85874,4.24824 -3.7989,0.20882 -4.3437,1.01153 -2.25383,3.32081 2.40643,2.65907 9.82269,4.05771 11.04334,2.08267 z m -23.67969,20.45628 c -0.96494,-2.11781 -0.81976,-2.96915 0.90389,-5.30051 1.76674,-2.38964 1.86585,-3.03406 0.70977,-4.61509 -0.95496,-1.30599 -1.05543,-2.37629 -0.34727,-3.69949 1.28958,-2.4096 3.16357,-2.36189 5.42607,0.13814 0.99549,1.1 3.03513,2 4.53254,2 5.74973,0 6.86202,6.26695 1.20927,6.81336 -2.59607,0.25094 -3.24181,0.75887 -3.24181,2.55 0,5.04409 -7.11215,6.67936 -9.19246,2.11359 z"
       inkscape:connector-curvature="0" />
    <rect
       style="fill:none;fill-opacity:1;stroke:none;stroke-opacity:1"
       id="rect4209"
       width="189.64285"
       height="189.64285"
       x="295.35715"
       y="368.07648" />
    <g
       id="g11065"
       transform="matrix(3.2649853,0,0,3.7272063,-1032.488,347.61214)"
       style="stroke-width:3.58325472;stroke-miterlimit:4;stroke-dasharray:none;stroke:#000000;stroke-opacity:1;fill:#000000">
      <path
         id="path11056"
         style="opacity:0.9;fill:#000000;fill-opacity:1;fill-rule:evenodd;stroke:#000000;stroke-width:3.58325472;stroke-miterlimit:4;stroke-dashoffset:0;stroke-opacity:1;stroke-dasharray:none"
         d="m 451.09297,49.38984 c 3.39584,-1.81997 5.20528,-5.11455 4.09222,-7.59296 -1.18726,-2.64364 -5.26701,-3.38972 -9.10658,-1.66537 -3.83956,1.72436 -5.99216,5.2694 -4.8049,7.91303 1.18727,2.64364 5.26701,3.38972 9.10658,1.66537 0.23997,-0.10777 0.48628,-0.19874 0.71268,-0.32007 z"
         inkscape:connector-curvature="0" />
      <path
         id="path11058"
         style="fill:#000000;fill-opacity:0.75;fill-rule:evenodd;stroke:#000000;stroke-width:3.58325472;stroke-linecap:butt;stroke-linejoin:miter;stroke-miterlimit:4;stroke-dasharray:none;stroke-opacity:1"
         d="m 454.72547,43.05645 0,-33.58757"
         inkscape:connector-curvature="0" />
    </g>
  </g>
</svg>
